<svg width="441" height="359" viewBox="0 0 441 359" fill="none" xmlns="http://www.w3.org/2000/svg">
<path d="M51.3403 344.804L50.075 344.563L50.4643 343.451L51.5544 343.654L51.5155 341.783L52.5861 341.531L52.625 343.402L53.6762 342.694L54.085 343.617L52.8002 344.46L53.6762 346.074L52.7418 346.774L52.0605 345.575L51.4181 347.086L50.4643 346.831L51.3403 344.804Z" fill="white"/>
<path d="M60.2676 341.56L59.0022 341.858L57.9121 343.295V352.415L59.0217 353.434L60.2481 353.144L61.3771 351.598V349.938L63.1486 349.501V351.861L61.0267 354.781L58.2431 355.437L56.1407 353.513V342.993L58.2625 340.213L61.0267 339.561L63.1486 341.341V343.601L61.3771 344.018V342.478L60.2676 341.56Z" fill="white"/>
<path d="M68.5055 343.998L71.2892 337.321L73.2358 336.863L70.0433 344.555L73.6835 351.697L71.7369 352.156L68.5055 345.818L67.5711 346.038V353.138L65.7997 353.556V338.616L67.5711 338.198V344.218L68.5055 343.998Z" fill="white"/>
<path d="M75.2667 336.384L77.0381 335.966V341.226L76.7656 347.57L76.824 347.557L78.2645 341.037L79.9191 335.287L82.3135 334.722V349.662L80.5421 350.08V342.88L80.8341 337.431L80.7757 337.445L79.4325 342.982L77.1549 350.879L75.2667 351.324V336.384Z" fill="white"/>
<path d="M84.1211 347.636L85.5227 347.306L87.372 333.49L92.4527 332.292V345.672L93.6986 345.378V348.478L91.9855 348.882V347.382L85.8342 348.832V350.332L84.1211 350.736V347.636ZM88.9293 334.903L87.3136 346.884L90.6813 346.09V334.49L88.9293 334.903Z" fill="white"/>
<path d="M98.3323 336.966L101.116 330.29L103.063 329.831L99.8702 337.523L103.51 344.665L101.564 345.124L98.3323 338.786L97.3979 339.006V346.106L95.6265 346.524V331.584L97.3979 331.166V337.186L98.3323 336.966Z" fill="white"/>
<path d="M109.649 328.238L111.809 342.709L110.019 343.131L109.454 339.364L106.417 340.08L105.853 344.113L104.062 344.535L106.223 329.046L109.649 328.238ZM107.741 330.508L106.67 338.2L109.201 337.604L108.111 330.421L107.741 330.508Z" fill="white"/>
<path d="M116.267 340.058L117.669 339.727L119.518 325.911L124.599 324.713V338.093L125.845 337.8V340.9L124.132 341.304V339.804L117.98 341.254V342.754L116.267 343.158V340.058ZM121.075 327.324L119.46 339.305L122.827 338.511V326.911L121.075 327.324Z" fill="white"/>
<path d="M134.683 322.336V337.316L132.912 337.734V324.534L131.16 324.947L129.33 338.578L126.624 339.216V337.536L127.753 337.27L129.622 323.529L134.683 322.336Z" fill="white"/>
<path d="M140.563 330.89L138.285 336.467L136.339 336.926L138.928 330.575L137.351 329.207V324.027L139.59 321.179L143.872 320.17V335.15L142.101 335.567V330.527L140.563 330.89ZM140.31 322.85L139.122 324.349V328.069L140.329 329.125L142.101 328.707V322.427L140.31 322.85Z" fill="white"/>
<path d="M157.972 318.626L156.22 331.079L153.981 331.606L152.171 319.993L151.956 320.044V333.224L150.185 333.641V318.681L153.708 317.851L154.526 323.518L155.052 328.914L155.11 328.9L155.616 323.341L156.434 317.208L159.957 316.378V331.338L158.186 331.755V318.575L157.972 318.626Z" fill="white"/>
<path d="M167.638 329.607L164.835 330.268L162.654 328.382V317.802L164.854 315.023L167.638 314.367L169.837 316.108V326.688L167.638 329.607ZM168.066 317.266L166.898 316.341L165.574 316.653L164.406 318.129V327.269L165.594 328.289L166.878 327.986L168.066 326.406V317.266Z" fill="white"/>
<path d="M176.685 314.114L175.42 314.412L174.33 315.849V324.969L175.44 325.988L176.666 325.698L177.795 324.152V322.492L179.566 322.055V324.415L177.445 327.335L174.661 327.991L172.559 326.067V315.547L174.68 312.767L177.445 312.115L179.566 313.895V316.155L177.795 316.572V315.032L176.685 314.114Z" fill="white"/>
<path d="M184.923 316.552L187.707 309.875L189.654 309.416L186.461 317.109L190.101 324.251L188.155 324.71L184.923 318.372L183.989 318.592V325.692L182.218 326.11V311.17L183.989 310.752V316.772L184.923 316.552Z" fill="white"/>
<path d="M195.967 307.908L198.147 309.654V313.314L197.077 314.886L198.537 316.022V320.022L196.356 322.776L191.685 323.878V308.918L195.967 307.908ZM196.356 313.016V310.836L195.227 309.942L193.475 310.355V314.955L195.325 314.52L196.356 313.016ZM195.617 321.111L196.746 319.684V317.284L195.5 316.318L193.475 316.795V321.615L195.617 321.111Z" fill="white"/>
<path d="M210.044 304.549L211.816 304.132V319.132L210.044 319.549V304.549ZM201.207 321.633V306.653L202.978 306.235V311.155L205.801 310.49L208.039 312.382V317.742L205.781 320.554L201.207 321.633ZM202.978 319.395L205.061 318.904L206.249 317.404V313.524L205.042 312.489L202.978 312.975V319.395Z" fill="white"/>
<path d="M218.147 302.699L219.918 302.282V307.542L219.646 313.886L219.704 313.872L221.144 307.352L222.799 301.602L225.193 301.038V315.978L223.422 316.395V309.195L223.714 303.747L223.656 303.76L222.312 309.297L220.035 317.194L218.147 317.639V302.699Z" fill="white"/>
<path d="M239.297 299.453L237.545 311.906L235.306 312.434L233.496 300.821L233.282 300.871V314.051L231.51 314.469V299.509L235.034 298.678L235.851 304.345L236.377 309.741L236.435 309.728L236.941 304.168L237.759 298.035L241.282 297.205V312.165L239.511 312.582V299.402L239.297 299.453Z" fill="white"/>
<path d="M248.963 310.434L246.16 311.095L243.98 309.209V298.629L246.179 295.85L248.963 295.194L251.163 296.935V307.515L248.963 310.434ZM249.391 298.093L248.223 297.168L246.899 297.481L245.731 298.956V308.096L246.919 309.116L248.204 308.813L249.391 307.233V298.093Z" fill="white"/>
<path d="M258.011 294.941L256.745 295.239L255.655 296.676V305.796L256.765 306.815L257.991 306.526L259.12 304.979V303.319L260.892 302.882V305.242L258.77 308.162L255.986 308.818L253.884 306.894V296.374L256.006 293.594L258.77 292.942L260.892 294.722V296.982L259.12 297.399V295.859L258.011 294.941Z" fill="white"/>
<path d="M266.249 297.379L269.032 290.703L270.979 290.244L267.786 297.936L271.427 305.078L269.48 305.537L266.249 299.199L265.314 299.419V306.519L263.543 306.937V291.997L265.314 291.579V297.599L266.249 297.379Z" fill="white"/>
<path d="M277.915 303.608L275.112 304.269L272.932 302.383V291.803L275.132 289.025L277.915 288.368L280.115 290.11V300.69L277.915 303.608ZM278.344 291.267L277.176 290.343L275.852 290.655L274.684 292.13V301.27L275.871 302.29L277.156 301.987L278.344 300.407V291.267Z" fill="white"/>
<path d="M287.197 286.4L289.377 288.146V291.806L288.306 293.379L289.766 294.515V298.515L287.586 301.269L282.914 302.37V287.41L287.197 286.4ZM287.586 291.509V289.329L286.457 288.435L284.705 288.848V293.448L286.554 293.012L287.586 291.509ZM286.846 299.603L287.975 298.177V295.777L286.729 294.81L284.705 295.288V300.108L286.846 299.603Z" fill="white"/>
<path d="M296.563 285.852L295.298 286.15L294.208 287.587V296.707L295.317 297.726L296.544 297.437L297.673 295.891V294.231L299.444 293.793V296.153L297.322 299.073L294.539 299.729L292.436 297.805V287.285L294.558 284.505L297.322 283.853L299.444 285.633V287.893L297.673 288.311V286.771L296.563 285.852Z" fill="white"/>
<path d="M304.801 288.29L307.585 281.614L309.531 281.155L306.339 288.847L309.979 295.989L308.032 296.448L304.801 290.11L303.867 290.33V297.43L302.095 297.848V282.908L303.867 282.49V288.51L304.801 288.29Z" fill="white"/>
<path d="M316.468 294.52L313.665 295.18L311.484 293.294V282.714L313.684 279.936L316.468 279.28L318.667 281.021V291.601L316.468 294.52ZM316.896 282.179L315.728 281.254L314.404 281.566L313.236 283.041V292.181L314.424 293.201L315.709 292.899L316.896 291.319V282.179Z" fill="white"/>
<path d="M323.608 274.356L324.348 274.822L325.535 274.542L326.314 273.718L327.248 274.598L326.158 276.095L323.744 276.664L322.634 275.686L323.608 274.356ZM321.467 278.341L323.238 277.923V283.183L322.965 289.528L323.024 289.514L324.464 282.994L326.119 277.244L328.513 276.68V291.62L326.742 292.037V284.837L327.034 279.389L326.975 279.402L325.632 284.939L323.355 292.836L321.467 293.281V278.341Z" fill="white"/>
<path d="M339.755 289.029L336.952 289.69L334.772 287.804V277.224L336.971 274.446L339.755 273.789L341.955 275.531V286.111L339.755 289.029ZM340.183 276.688L339.015 275.764L337.692 276.076L336.524 277.551V286.691L337.711 287.711L338.996 287.408L340.183 285.828V276.688Z" fill="white"/>
<path d="M351.119 271.29V273.11L346.525 274.193V277.993L349.348 277.328L351.587 279.22V283.9L349.328 286.712L344.754 287.791V272.791L351.119 271.29ZM346.525 285.553L348.608 285.062L349.796 283.562V280.362L348.589 279.327L346.525 279.813V285.553Z" fill="white"/>
<path d="M361.112 268.954V283.934L359.341 284.352V271.152L357.589 271.565L355.759 285.196L353.053 285.834V284.154L354.182 283.888L356.051 270.148L361.112 268.954Z" fill="white"/>
<path d="M368.452 267.224L370.613 281.695L368.822 282.117L368.258 278.35L365.221 279.066L364.656 283.099L362.865 283.521L365.026 268.032L368.452 267.224ZM366.544 269.494L365.474 277.186L368.004 276.59L366.914 269.407L366.544 269.494Z" fill="white"/>
<path d="M376.577 266.989L375.311 267.287L374.221 268.724V277.844L375.331 278.862L376.557 278.573L377.686 277.027V275.367L379.458 274.929V277.289L377.336 280.21L374.552 280.866L372.45 278.942V268.422L374.572 265.641L377.336 264.99L379.458 266.769V269.029L377.686 269.447V267.907L376.577 266.989Z" fill="white"/>
<path d="M380.921 265.904V264.264L387.851 262.631V264.271L385.262 264.881V278.241L383.491 278.659V265.299L380.921 265.904Z" fill="white"/>
<path d="M389.732 262.247L391.503 261.83V267.09L391.231 273.434L391.289 273.42L392.73 266.9L394.384 261.15L396.779 260.586V275.526L395.007 275.944V268.744L395.299 263.295L395.241 263.308L393.898 268.845L391.62 276.742L389.732 277.187V262.247Z" fill="white"/>
<path d="M144.474 69.6929L149.068 54.9298L156.543 53.1675L137.544 117.647L130.069 119.409L136.454 96.9436L123.061 61.0611L130.77 59.2437L135.13 71.9757L140.114 85.8409L140.269 85.8041L144.474 69.6929Z" fill="white"/>
<path d="M179.594 54.5332L174.533 55.7264L170.172 61.4744V97.9544L174.61 102.028L179.516 100.872L184.032 94.6869V88.0469L191.118 86.2964V95.7364L182.631 107.417L171.496 110.042L163.086 102.345V60.2649L171.574 49.144L182.631 46.5373L191.118 53.6564V62.6964L184.032 64.3669V58.2069L179.594 54.5332Z" fill="white"/>
<path d="M201.644 42.6947L228.975 36.2514V96.0914L221.889 97.7619V44.8819L208.73 47.9842V100.864L201.644 102.535V42.6947Z" fill="white"/>
<path d="M261.378 62.4522L247.284 65.7749V84.4949L265.193 80.2728V87.5528L240.199 93.4454V33.5254L264.103 27.8898V35.1698L247.284 39.1349V58.4949L261.378 55.1723V62.4522Z" fill="white"/>
<path d="M283.895 9.46389L286.853 11.3263L291.603 10.2065L294.718 6.91225L298.455 10.4311L294.095 16.4191L284.44 18.6954L280.001 14.7817L283.895 9.46389ZM275.329 25.4032L282.415 23.7327V44.7727L281.325 70.1497L281.559 70.0946L287.321 44.0162L293.939 21.0158L303.517 18.7579V78.5179L296.431 80.1884V51.3884L297.599 29.593L297.365 29.6481L291.993 51.7948L282.882 83.3825L275.329 85.1632V25.4032Z" fill="white"/>
<path d="M314.329 63.5688V15.7288L321.493 14.04V61.88L314.329 63.5688ZM313.862 69.199L321.726 67.3449V74.5449L313.862 76.399V69.199Z" fill="white"/>
<path d="M272.491 122.174L288.493 118.401L300.406 129.273V152.313L270.739 194.227V202.747L290.361 198.121V188.641L301.107 186.107V205.787L260.227 215.425V192.745L289.661 150.766V135.886L283.704 130.45L277.397 131.937L271.323 140.209V149.689L260.695 152.195V138.635L272.491 122.174Z" fill="#D29C4E"/>
<path d="M325.969 142.326L342.438 138.443L354.468 150.127V179.647L342.438 196.283L326.203 200.111L314.056 189.175V173.095L324.684 170.589V182.469L330.875 188.089L337.766 186.465L343.956 177.925V156.685L337.649 150.372L314.873 155.742L316.976 112.166L351.665 103.988V114.908L327.02 120.718L325.969 142.326Z" fill="#D29C4E"/>
<path d="M388.454 141.035L375.957 143.981L367.197 134.886V109.806L376.424 97.191L387.987 94.465L397.331 102.702V127.902L388.454 141.035ZM390.206 184.782L381.096 186.93L416.836 87.6637L426.18 85.4608L390.206 184.782ZM389.622 107.519L384.483 103.331L379.811 104.432L375.023 110.961V130.401L379.578 135.208L384.834 133.968L389.622 126.959V107.519ZM431.202 174.757L418.705 177.703L410.062 168.701V143.621L419.172 131.153L430.735 128.427L440.079 136.544V161.744L431.202 174.757ZM432.254 141.389L427.348 137.145L422.559 138.274L417.771 144.803V164.243L422.326 169.17L427.699 167.903L432.254 160.829V141.389Z" fill="#D29C4E"/>
<path d="M23.5463 200.006L18.4851 201.199L14.1246 206.947V243.427L18.5629 247.501L23.4685 246.345L27.9846 240.16V233.52L35.0704 231.769V241.209L26.5831 252.89L15.4483 255.515L7.03886 247.818V205.738L15.5262 194.617L26.5831 192.01L35.0704 199.129V208.169L27.9846 209.84V203.68L23.5463 200.006Z" fill="#D29C4E"/>
<path d="M56.498 209.758L67.6327 183.053L75.4193 181.217L62.6493 211.988L77.2102 240.555L69.4236 242.39L56.498 217.038L52.7604 217.919V246.319L45.6747 247.989V188.229L52.7604 186.559V210.639L56.498 209.758Z" fill="#D29C4E"/>
<path d="M83.5428 179.302L90.6286 177.631V198.671L89.5384 224.048L89.772 223.993L95.5341 197.915L102.153 174.914L111.73 172.657V232.417L104.644 234.087V205.287L105.812 183.492L105.579 183.547L100.206 205.693L91.0957 237.281L83.5428 239.062V179.302Z" fill="#D29C4E"/>
<path d="M118.961 224.312L124.567 222.99L131.964 167.726L152.287 162.935V216.455L157.27 215.28V227.68L150.418 229.296V223.296L125.813 229.096V235.096L118.961 236.712V224.312ZM138.193 173.378L131.731 221.301L145.201 218.126V171.726L138.193 173.378Z" fill="#D29C4E"/>
<path d="M175.805 181.631L186.94 154.925L194.727 153.09L181.957 183.86L196.518 212.428L188.731 214.263L175.805 188.911L172.068 189.792V218.192L164.982 219.862V160.102L172.068 158.432V182.512L175.805 181.631Z" fill="#D29C4E"/>
<path d="M221.071 146.719L229.714 204.601L222.55 206.29L220.292 191.223L208.145 194.086L205.887 210.219L198.723 211.908L207.366 149.95L221.071 146.719ZM213.44 155.798L209.157 186.568L219.28 184.181L214.919 155.449L213.44 155.798Z" fill="#D29C4E"/>
<path fill-rule="evenodd" clip-rule="evenodd" d="M244.433 129.399L1.02567 183.952L0.150887 180.048L243.558 125.495L244.433 129.399Z" fill="#D29C4E"/>
<path fill-rule="evenodd" clip-rule="evenodd" d="M244.433 219.361L1.02567 273.914L0.150887 270.011L243.558 215.458L244.433 219.361Z" fill="#D29C4E"/>
<path d="M12.1432 304.446L15.2432 303.715V315.265L21.0004 313.908V302.358L24.1004 301.627V327.772L21.0004 328.503V316.953L15.2432 318.31V329.86L12.1432 330.591V304.446Z" fill="white"/>
<path d="M36.9806 298.521L40.7619 323.844L37.6278 324.583L36.6399 317.991L31.3256 319.244L30.3377 326.302L27.2036 327.041L30.9849 299.934L36.9806 298.521ZM33.6421 302.493L31.7685 315.954L36.1971 314.91L34.2893 302.34L33.6421 302.493Z" fill="white"/>
<path d="M50.2664 295.423L62.2236 292.604V318.784L59.1235 319.515V296.38L53.3664 297.738V320.873L50.2664 321.603V295.423Z" fill="white"/>
<path d="M75.1053 289.533L78.8867 314.856L75.7526 315.595L74.7647 309.003L69.4504 310.256L68.4624 317.314L65.3284 318.053L69.1097 290.946L75.1053 289.533ZM71.7669 293.505L69.8932 306.966L74.3218 305.922L72.4141 293.352L71.7669 293.505Z" fill="white"/>
<path d="M89.5275 292.082L91.5374 285.624L94.8078 284.853L86.4957 313.062L83.2253 313.833L86.0187 304.005L80.1594 288.306L83.5319 287.511L85.4396 293.081L87.6198 299.147L87.688 299.131L89.5275 292.082Z" fill="white"/>
<path d="M100.907 283.52V306.655L105.642 305.538V282.368L108.742 281.638V304.808L113.477 303.691V280.521L116.577 279.79V305.97L97.8067 310.396V284.251L100.907 283.52Z" fill="white"/>
<path d="M129.465 276.717L133.246 302.041L130.112 302.779L129.124 296.187L123.81 297.44L122.822 304.498L119.688 305.237L123.469 278.131L129.465 276.717ZM126.126 280.689L124.253 294.151L128.681 293.107L126.773 280.537L126.126 280.689Z" fill="white"/>
<path d="M148.69 272.185V298.4L145.59 299.13V276.03L142.524 276.753L139.322 300.608L134.587 301.725V298.785L136.563 298.319L139.833 274.273L148.69 272.185Z" fill="white"/>
<path d="M153.427 297.283V271.068L156.527 270.337V278.947L161.467 277.782L165.384 281.094V290.474L161.433 295.396L153.427 297.283ZM156.527 293.367L160.172 292.508L162.25 289.883V283.093L160.138 281.281L156.527 282.132V293.367Z" fill="white"/>
<path d="M169.998 267.231L173.098 266.5V278.05L178.856 276.693V265.143L181.956 264.412V290.557L178.856 291.288V279.738L173.098 281.095V292.645L169.998 293.376V267.231Z" fill="white"/>
<path d="M202.194 259.536L205.294 258.805V285.055L202.194 285.786V259.536ZM186.728 289.432V263.217L189.828 262.486V271.096L194.768 269.932L198.685 273.243V282.623L194.734 287.545L186.728 289.432ZM189.828 285.516L193.473 284.657L195.551 282.032V275.242L193.439 273.43L189.828 274.281V285.516Z" fill="white"/>
<path d="M213.932 250.784L215.227 251.598L217.305 251.108L218.667 249.667L220.303 251.207L218.395 253.826L214.171 254.822L212.229 253.11L213.932 250.784ZM210.185 257.757L213.285 257.026V266.231L212.808 277.334L212.91 277.309L215.431 265.9L218.327 255.837L222.517 254.85V280.995L219.417 281.725V269.125L219.928 259.59L219.826 259.614L217.475 269.303L213.489 283.123L210.185 283.902V257.757Z" fill="white"/>
<path d="M241.1 250.434L244.915 253.489V259.894L243.042 262.646L245.597 264.633V271.633L241.781 276.453L233.605 278.38V252.2L241.1 250.434ZM241.781 259.373V255.558L239.805 253.994L236.739 254.717V262.767L239.976 262.004L241.781 259.373ZM240.487 273.538L242.463 271.042V266.842L240.282 265.151L236.739 265.987V274.422L240.487 273.538Z" fill="white"/>
<path d="M256.129 257.426L257.934 254.795V251.61L256.231 249.981L254.493 250.391L252.858 252.807V254.347L249.724 255.085V252.215L253.199 247.441L257.525 246.421L261.068 249.541V255.316L259.195 258.068L261.75 260.055V267.79L258.036 272.691L253.199 273.831L249.52 270.674V265.949L252.62 265.218V268.683L254.527 270.333L256.674 269.827L258.615 267.269V262.264L256.435 260.573L253.54 261.256V258.036L256.129 257.426Z" fill="white"/>
<path d="M266.541 244.471L269.641 243.74V255.29L275.398 253.933V242.383L278.498 241.652V267.797L275.398 268.528V256.978L269.641 258.335V269.885L266.541 270.616V244.471Z" fill="white"/>
<path d="M291.992 264.721L287.086 265.877L283.271 262.577V244.062L287.12 239.199L291.992 238.051L295.841 241.098V259.613L291.992 264.721ZM292.741 243.124L290.697 241.506L288.381 242.052L286.337 244.634V260.629L288.415 262.414L290.663 261.884L292.741 259.119V243.124Z" fill="white"/>
<path d="M307.825 237.608L305.611 238.13L303.703 240.645V256.605L305.645 258.387L307.791 257.881L309.767 255.175V252.27L312.867 251.504V255.634L309.154 260.745L304.282 261.893L300.603 258.525V240.115L304.316 235.25L309.154 234.11L312.867 237.224V241.179L309.767 241.91V239.215L307.825 237.608Z" fill="white"/>
<path d="M321.957 254.751L324.41 254.173L327.646 229.995L336.537 227.899V251.314L338.717 250.8V256.225L335.72 256.932V254.307L324.955 256.844V259.469L321.957 260.176V254.751ZM330.371 232.468L327.544 253.434L333.437 252.045V231.745L330.371 232.468Z" fill="white"/>
<path d="M350.676 250.886L345.77 252.042L341.955 248.742V230.227L345.804 225.364L350.676 224.216L354.525 227.263V245.778L350.676 250.886ZM351.425 229.289L349.381 227.671L347.065 228.217L345.021 230.799V246.794L347.099 248.579L349.347 248.049L351.425 245.284V229.289Z" fill="white"/>
<path d="M376.615 218.415V225.03L373.276 230.017L376.921 233.393V240.568L373.242 245.46L368.405 246.601L364.726 243.443V238.683L367.826 237.952V241.452L369.733 243.103L371.88 242.597L373.821 240.039V235.314L371.88 233.532L369.291 234.142L368.303 232.415L373.515 224.641V222.121L368.098 223.398V226.163L364.998 226.894V221.154L376.615 218.415Z" fill="white"/>
<path d="M386.789 239.327L390.638 238.419V241.359L379.839 243.905V240.965L383.689 240.058V219.968L380.112 220.811V217.626L386.789 216.052V239.327Z" fill="white"/>
<path d="M392.186 240.994V237.739L395.252 237.016V240.271L392.186 240.994Z" fill="white"/>
<path d="M402.527 238.697L398.643 235.377V217.142L402.561 212.194L407.5 211.029L411.384 214.138V232.373L407.534 237.516L402.527 238.697ZM406.206 214.519L403.855 215.073L401.743 217.706V229.676L407.671 215.644L406.206 214.519ZM403.855 235.233L406.172 234.687L408.318 231.836V219.936L402.39 233.969L403.855 235.233Z" fill="white"/>
<path d="M419.003 217.872L423.807 216.74L427.316 220.147V228.757L423.807 233.61L419.072 234.726L415.529 231.536V226.846L418.629 226.115V229.58L420.434 231.22L422.444 230.746L424.25 228.255V222.06L422.41 220.219L415.767 221.785L416.38 209.075L426.498 206.69V209.875L419.31 211.57L419.003 217.872Z" fill="white"/>
<path d="M432.459 210.22L430.245 209.797L430.926 207.851L432.834 208.207L432.766 204.933L434.639 204.491L434.707 207.765L436.547 206.526L437.262 208.142L435.014 209.618L436.547 212.441L434.912 213.667L433.719 211.568L432.595 214.213L430.926 213.766L432.459 210.22Z" fill="white"/>
</svg>
